<svg width="32" height="32" viewBox="0 0 32 32" fill="none" xmlns="http://www.w3.org/2000/svg">
  <rect width="32" height="32" rx="8" fill="url(#gradient)"/>
  <rect x="2" y="2" width="28" height="28" rx="6" fill="url(#innerGradient)"/>
  
  <!-- Lightning bolt (Zap icon) -->
  <path d="M18 8L12 16H16L14 24L20 16H16L18 8Z" fill="white" stroke="white" stroke-width="0.5" stroke-linejoin="round"/>
  
  <!-- Sound waves -->
  <path d="M8 14C8 14 9 13 9 16C9 19 8 18 8 18" stroke="white" stroke-width="1.5" fill="none" stroke-linecap="round" opacity="0.6"/>
  <path d="M6 12C6 12 7.5 10 7.5 16C7.5 22 6 20 6 20" stroke="white" stroke-width="1.5" fill="none" stroke-linecap="round" opacity="0.4"/>
  
  <path d="M24 14C24 14 23 13 23 16C23 19 24 18 24 18" stroke="white" stroke-width="1.5" fill="none" stroke-linecap="round" opacity="0.6"/>
  <path d="M26 12C26 12 24.5 10 24.5 16C24.5 22 26 20 26 20" stroke="white" stroke-width="1.5" fill="none" stroke-linecap="round" opacity="0.4"/>
  
  <defs>
    <linearGradient id="gradient" x1="0%" y1="0%" x2="100%" y2="100%">
      <stop offset="0%" style="stop-color:#3B82F6;stop-opacity:1" />
      <stop offset="100%" style="stop-color:#8B5CF6;stop-opacity:1" />
    </linearGradient>
    <linearGradient id="innerGradient" x1="0%" y1="0%" x2="100%" y2="100%">
      <stop offset="0%" style="stop-color:#2563EB;stop-opacity:1" />
      <stop offset="100%" style="stop-color:#7C3AED;stop-opacity:1" />
    </linearGradient>
  </defs>
</svg>
