<svg width="64" height="64" viewBox="0 0 64 64" fill="none" xmlns="http://www.w3.org/2000/svg">
  <!-- Background circle -->
  <circle cx="32" cy="32" r="30" fill="url(#gradient)" stroke="#6663FD" stroke-width="2"/>
  
  <!-- Sound waves -->
  <path d="M20 32 Q24 28 28 32 Q32 36 36 32 Q40 28 44 32" stroke="white" stroke-width="3" fill="none" stroke-linecap="round"/>
  <path d="M18 32 Q22 26 26 32 Q30 38 34 32 Q38 26 42 32 Q46 38 50 32" stroke="white" stroke-width="2" fill="none" stroke-linecap="round" opacity="0.7"/>
  <path d="M16 32 Q20 24 24 32 Q28 40 32 32 Q36 24 40 32 Q44 40 48 32" stroke="white" stroke-width="1.5" fill="none" stroke-linecap="round" opacity="0.5"/>
  
  <!-- Center dot -->
  <circle cx="32" cy="32" r="3" fill="white"/>
  
  <!-- Gradient definition -->
  <defs>
    <linearGradient id="gradient" x1="0%" y1="0%" x2="100%" y2="100%">
      <stop offset="0%" style="stop-color:#6663FD;stop-opacity:1" />
      <stop offset="100%" style="stop-color:#4F46E5;stop-opacity:1" />
    </linearGradient>
  </defs>
</svg>
