<svg width="64" height="64" viewBox="0 0 64 64" fill="none" xmlns="http://www.w3.org/2000/svg">
  <!-- Background with rounded rectangle -->
  <rect width="64" height="64" rx="16" fill="url(#gradient)"/>
  <rect x="4" y="4" width="56" height="56" rx="12" fill="url(#innerGradient)"/>
  
  <!-- Lightning bolt (Zap icon) -->
  <path d="M36 16L24 32H32L28 48L40 32H32L36 16Z" fill="white" stroke="white" stroke-width="1" stroke-linejoin="round"/>
  
  <!-- Sound waves -->
  <path d="M16 28C16 28 18 26 18 32C18 38 16 36 16 36" stroke="white" stroke-width="3" fill="none" stroke-linecap="round" opacity="0.6"/>
  <path d="M12 24C12 24 15 20 15 32C15 44 12 40 12 40" stroke="white" stroke-width="3" fill="none" stroke-linecap="round" opacity="0.4"/>
  
  <path d="M48 28C48 28 46 26 46 32C46 38 48 36 48 36" stroke="white" stroke-width="3" fill="none" stroke-linecap="round" opacity="0.6"/>
  <path d="M52 24C52 24 49 20 49 32C49 44 52 40 52 40" stroke="white" stroke-width="3" fill="none" stroke-linecap="round" opacity="0.4"/>
  
  <!-- Gradient definitions -->
  <defs>
    <linearGradient id="gradient" x1="0%" y1="0%" x2="100%" y2="100%">
      <stop offset="0%" style="stop-color:#3B82F6;stop-opacity:1" />
      <stop offset="100%" style="stop-color:#8B5CF6;stop-opacity:1" />
    </linearGradient>
    <linearGradient id="innerGradient" x1="0%" y1="0%" x2="100%" y2="100%">
      <stop offset="0%" style="stop-color:#2563EB;stop-opacity:1" />
      <stop offset="100%" style="stop-color:#7C3AED;stop-opacity:1" />
    </linearGradient>
  </defs>
</svg>
